<?xml version="1.0" encoding="utf-8"?>
<!-- Generator: Adobe Illustrator 23.0.6, SVG Export Plug-In . SVG Version: 6.00 Build 0)  -->
<svg version="1.1" id="Layer_1" xmlns="http://www.w3.org/2000/svg" xmlns:xlink="http://www.w3.org/1999/xlink" x="0px" y="0px"
	 viewBox="0 0 116.2 58.1" style="enable-background:new 0 0 116.2 58.1;" xml:space="preserve">
<style type="text/css">
	.st0{fill:#FFFFFF;}
	.st1{fill:#00AA5A;}
	.st2{fill:#F26A68;stroke:#F26A68;stroke-width:0.25;stroke-miterlimit:10;}
	.st3{fill:#5D5E5E;}
	.st4{fill:#71C05D;}
	.st5{fill:#F6CC5D;}
	.st6{fill:none;stroke:#D3B166;stroke-width:0.25;stroke-miterlimit:10;}
	.st7{fill:#D3B166;}
</style>
<title>Asset 2</title>
<g>
	<g id="Layer_1-2">
		<path class="st0" d="M105.6,5.3c0,26.2-21.2,47.5-47.5,47.5c0,0,0,0,0,0c-26.2,0-47.5-21.3-47.5-47.5"/>
		<path class="st1" d="M58,26.1c0,0,3.5,0.4,3.9,3.1S57.9,29.4,58,26.1z"/>
		<path class="st1" d="M65.5,26.6c0,0-0.4,3.5-3.1,3.9C59.7,30.9,62.2,26.6,65.5,26.6z"/>
		<path class="st2" d="M67,31.4c-0.2-0.2-0.4-0.5-0.6-0.6c-0.6-0.5-3.5-0.4-4.3-0.4c-1.5,0-2.8-0.9-4.2-1c-2.3-0.2-3.6,2.1-4.1,4
			c-0.3,1-0.4,1.9-0.3,2.9c0.1,1.9,1.4,4.9,3.5,5.4c1.5,0.3,2.7-0.6,4.2,0.2c0.3,0.2,0.6,0.3,0.9,0.4c1.5,0.4,3.2-1.4,4-2.5
			c0.6-0.8,1-1.7,1.2-2.7C67.7,35.6,68,32.9,67,31.4z"/>
		<path class="st0" d="M62.9,33.9c-0.3-0.5-1-0.7-1.5-0.4c-0.1,0.1-0.2,0.1-0.3,0.2c-0.4-0.9-1.8-1.6-2.5-0.6
			c-0.3,0.4-0.5,1-0.4,1.5c0.1,1.2,1.2,2.4,1.7,3.5c0.1,0.2,0.3,0.3,0.5,0.2c0.1,0,0.1-0.1,0.1-0.1l1.9-1.8
			C63.2,35.7,63.4,34.7,62.9,33.9z"/>
		<path class="st3" d="M61.7,35.2c0.1,0.1,0.2,0.2,0.2,0.3c0,0.1,0,0.2,0,0.3c0,0.1,0,0.2-0.1,0.2c-0.2,0.2-0.4,0.3-0.6,0.3
			c-0.1,0-0.1,0-0.1,0 M61,36.3c-0.1-0.1,0-0.6,0-0.7c0.1-0.2,0.2-0.4,0.4-0.4c0.1,0,0.2,0,0.2,0"/>
		<path class="st3" d="M60.2,36.1c0,0-0.1,0-0.1,0c-0.2-0.1-0.4-0.2-0.5-0.5c0-0.1,0-0.2,0-0.2c0-0.1,0-0.2,0.1-0.2
			c0.1-0.1,0.2-0.2,0.3-0.2 M60,34.9c0.1,0,0.2,0,0.2,0c0.2,0.1,0.3,0.3,0.3,0.5c0,0.1-0.1,0.6-0.3,0.6"/>
		<path class="st4" d="M42.2,35.5c0,0,1.7-1.4,3.1-0.4C46.6,36.1,43.6,36.9,42.2,35.5z"/>
		<path class="st4" d="M41.5,27.9c0,0,4,2.3,2.9,5.7C43.3,37,39.6,31.8,41.5,27.9z"/>
		<path class="st4" d="M38.6,34.2c0,0,2.1-2.3,4.2-1C44.9,34.4,40.8,36,38.6,34.2z"/>
		<path class="st5" d="M41.8,35.2c0.3-0.8,0.8-1.6,1.3-2.3c0.6-0.7,1.4-1.2,2.2-1.5c1.9-0.7,3.9-0.7,5.8,0c0.8,0.4,1.5,0.9,2.1,1.5
			c0.6,0.7,1.1,1.4,1.3,2.3c0.3,0.9,0.5,1.9,0.5,2.8c0,0.9-0.2,1.9-0.5,2.7c-0.3,0.8-0.8,1.6-1.3,2.2c-0.6,0.6-1.3,1.2-2.2,1.5
			c-1.9,0.7-3.9,0.7-5.8,0c-0.8-0.3-1.6-0.8-2.2-1.5c-0.6-0.6-1.1-1.4-1.3-2.2c-0.3-0.9-0.5-1.8-0.5-2.8
			C41.4,37.1,41.5,36.1,41.8,35.2z"/>
		<path class="st0" d="M46.5,32c1.2-0.5,2.4-0.5,3.6-0.1c0.8,0.2,1.6,0.6,2.2,1.2c0.6,0.5,1,1.1,1.4,1.8c0.9,2,0.5,4.3-0.5,6.2
			c-0.2,0.4-0.5,0.8-0.9,1 M52.2,42c-1.4,0.6-4.9-2-5.9-3c-1.5-1.3-2-3.5-1.3-5.4c0.2-0.7,0.7-1.3,1.4-1.7"/>
		<path class="st3" d="M48.3,34.8c0.5-0.2,1-0.2,1.4,0c0.3,0.1,0.6,0.3,0.9,0.5c0.2,0.2,0.4,0.4,0.5,0.7c0.3,0.8,0.2,1.7-0.2,2.5
			c-0.1,0.2-0.2,0.3-0.4,0.4 M50.5,38.8c-0.5,0.3-2-0.8-2.3-1.2c-0.6-0.5-0.8-1.4-0.5-2.1c0.1-0.3,0.3-0.5,0.6-0.7"/>
		<path class="st5" d="M67.9,36.6c-0.6,0.8-1.2,1.5-1.9,2.3c-2.6,2.7-5.4,5.3-8.1,8c-0.3,0.4-0.3,1,0.2,1.3c0.2,0.2,0.5,0.2,0.7,0.2
			c5.3-0.8,10.7-3.4,14.1-7.6s4.5-10.1,4.1-15.5c0-0.5-0.5-0.9-1-0.9c-0.3,0-0.5,0.2-0.7,0.4l-3,5C70.9,32.2,69.5,34.5,67.9,36.6z"
			/>
		<path class="st0" d="M73.3,39.2c-0.3-0.8-0.6-1.6-1-2.3c-0.1-0.1-0.1-0.2-0.2-0.3c0.9-2.8,2.6-7.6,3.7-10.3
			c0.2-0.6,0.1-1.2-0.2-1.7c0.5-0.2,1,0,1.3,0.5c0,0.1,0.1,0.2,0.1,0.3c0.4,4.9-0.6,10.2-3.3,14.3C73.6,39.5,73.5,39.3,73.3,39.2z"
			/>
		<path class="st6" d="M75.4,24.9c0.3-0.4,0.8-0.5,1.2-0.2c0.2,0.2,0.4,0.4,0.4,0.7c0.4,4.9-0.6,10.2-3.3,14.3"/>
		<path class="st7" d="M73.8,45.1c0-0.1-0.1-0.1-0.1-0.2c-1-2.9,0.1-5.9-1.8-8.4c0.6,0.7,2.8-0.4,3.4-0.5c0.9-0.2,2.1,1.3,2.3,2.1
			c0.1,0.4,0,0.9-0.1,1.3c-0.5,1.8-2.4,3.2-2.6,5c0,0.2-0.1,0.5-0.2,0.7c-0.1,0.2-0.4,0.3-0.6,0.3C73.9,45.4,73.8,45.3,73.8,45.1z"
			/>
		<line class="st6" x1="76" y1="25.5" x2="72" y2="36.6"/>
	</g>
</g>
</svg>
