<svg id="Layer_1" data-name="Layer 1" xmlns="http://www.w3.org/2000/svg" viewBox="0 0 224.24 51.25"><defs><style>.cls-1{fill:#5e5e5e;}.cls-2{opacity:0.6;}.cls-3{fill:#71bf5d;}.cls-4{fill:#f16a68;stroke:#f16a68;stroke-miterlimit:10;}.cls-5{fill:#f5cb5c;}.cls-6{fill:#fff;}.cls-7{opacity:0.2;}</style></defs><title>ObstLogo_b</title><ellipse class="cls-1" cx="27.95" cy="26.32" rx="8.5" ry="8.92"/><path class="cls-2" d="M1688.76,60.77a8.23,8.23,0,0,0-4.4,1.24h-0.16V53.29h-6v13.8c1.18-.6,2-0.09,2,1.63,0,5.09,1.64,10-1.49,14.05a18.34,18.34,0,0,0,7.4,1.24c7.52,0,11.56-5.24,11.56-12.12C1697.68,63.57,1693.88,60.77,1688.76,60.77Zm-2.2,18.44a6.83,6.83,0,0,1-2.28-.32v-12a4.05,4.05,0,0,1,3-1.2c2.6,0,4.36,1.6,4.36,6.64C1691.68,77.17,1689.76,79.2,1686.57,79.2Z" transform="translate(-1636.43 -40.87)"/><path class="cls-2" d="M1701,67.61c0-3.68,3.16-7,8.4-7,4.08,0,6.68,1.44,8.16,3.16l-3.88,3.8a6,6,0,0,0-4.44-2.12c-1.36,0-2.24.72-2.24,1.76,0,3.4,10.64,2.2,10.64,9.76,0,3-2.36,7-8.92,7-5,0-8-2.08-9.2-3.4l3.6-4.16a8.24,8.24,0,0,0,5.92,2.8c1.88,0,2.6-.88,2.6-1.92C1711.68,74,1701,75.13,1701,67.61Z" transform="translate(-1636.43 -40.87)"/><path class="cls-2" d="M1722.25,76.37V65.61h-2.88V61.85l2.92-1.2,2.08-5.32h3.84V61h5.64v4.6h-5.64V76.53a2.13,2.13,0,0,0,2.36,2.36,5.32,5.32,0,0,0,3.08-1l1.56,4.52c-0.76.56-2.52,1.4-6.28,1.4S1722.25,81.84,1722.25,76.37Z" transform="translate(-1636.43 -40.87)"/><path class="cls-3" d="M1646.88,58.67l-0.12-.1c-4.54-3.38-10.33,1.28-10.33,1.28a10,10,0,0,0,8.74,2.44l0-.07A18.94,18.94,0,0,1,1646.88,58.67Z" transform="translate(-1636.43 -40.87)"/><path class="cls-3" d="M1652.43,53.12c0.07-7.45-8.06-12.25-8.06-12.25-3.17,6.69-.38,14.74,2.79,17.38a17.4,17.4,0,0,1,1.58-2.1A15.82,15.82,0,0,1,1652.43,53.12Z" transform="translate(-1636.43 -40.87)"/><path class="cls-4" d="M1677.52,66.39a4.23,4.23,0,0,1-.89-1.32,4.09,4.09,0,0,1-3.73-1,4.28,4.28,0,0,1-1.33-3.68,4.19,4.19,0,0,1-2.76-2.73,4.27,4.27,0,0,1,.43-3.48,18.5,18.5,0,0,0-2.44-1c-3.33-1-6.8-1.22-9.45.2a7.85,7.85,0,0,0-3.71,4.59c-1.88,5.47-.68,10.33,3.39,14.41,2.5,2.51,11.9,9.67,15.45,8a5.9,5.9,0,0,0,2.46-2.82A21.8,21.8,0,0,0,1677.52,66.39Zm-15.64,2.13a5.22,5.22,0,0,1-1.35-5.75,3.21,3.21,0,0,1,1.15-1.61,2.94,2.94,0,0,1,.33-0.22,5,5,0,0,1,3.77-.08,6.35,6.35,0,0,1,2.33,1.25,5.52,5.52,0,0,1,1.43,1.9,7.66,7.66,0,0,1-.51,6.57,2.35,2.35,0,0,1-1,1.12,1.13,1.13,0,0,1-.41.09C1666,71.91,1662.8,69.44,1661.89,68.52Z" transform="translate(-1636.43 -40.87)"/><path class="cls-5" d="M1679.68,66.13a4.1,4.1,0,0,0-.59-0.18,2.4,2.4,0,0,1-1.42-1.85l-0.17-.76-0.43.19-0.27.12a2.82,2.82,0,0,1-3-.51,3,3,0,0,1-.81-3,2.89,2.89,0,0,0,.18-0.73c-1.31-.36-2.56-0.52-3.07-2.1a3.1,3.1,0,0,1,1.34-3.51,10.5,10.5,0,0,0-2.26-1.82,11,11,0,0,0-2.95-1,20.25,20.25,0,0,0-11.77,1.09,17.49,17.49,0,0,0-2,1,15.82,15.82,0,0,0-3.69,3,17.4,17.4,0,0,0-1.58,2.1l-0.28.43a18.94,18.94,0,0,0-1.69,3.56l0,0.07a22.52,22.52,0,0,0-1.22,7.5,21.76,21.76,0,0,0,1.24,7.41,17.67,17.67,0,0,0,3.55,6,16.24,16.24,0,0,0,5.69,4,20.62,20.62,0,0,0,15.2,0,16.31,16.31,0,0,0,5.66-4,17.69,17.69,0,0,0,3.55-6,21.93,21.93,0,0,0,1.2-5.55c0.08-1,.25-1.94.26-2.92C1680.3,68.12,1680.33,66.51,1679.68,66.13Zm-7.15,8.75a4.44,4.44,0,0,1-1.85,2.12c-2.67,1.27-9.74-4.12-11.62-6a9.85,9.85,0,0,1-2.55-10.84,5.9,5.9,0,0,1,2.79-3.45c2-1.06,4.6-.92,7.11-0.15a13.91,13.91,0,0,1,1.84.72,3.21,3.21,0,0,0-.32,2.61A3.15,3.15,0,0,0,1670,62a3.22,3.22,0,0,0,1,2.77,3.07,3.07,0,0,0,2.8.72,3.18,3.18,0,0,0,.67,1" transform="translate(-1636.43 -40.87)"/><text class="cls-2" x="-1636.43" y="-40.87"/><path class="cls-3" d="M1646.88,58.67l-0.12-.1c-4.54-3.38-10.33,1.28-10.33,1.28a10,10,0,0,0,8.74,2.44l0-.07A18.94,18.94,0,0,1,1646.88,58.67Z" transform="translate(-1636.43 -40.87)"/><path class="cls-3" d="M1652.43,53.12c0.07-7.45-8.06-12.25-8.06-12.25-3.17,6.69-.38,14.74,2.79,17.38a17.4,17.4,0,0,1,1.58-2.1A15.82,15.82,0,0,1,1652.43,53.12Z" transform="translate(-1636.43 -40.87)"/><path class="cls-6" d="M1676,66.41a3.7,3.7,0,0,1-.78-1.16,3.58,3.58,0,0,1-3.27-.84,3.75,3.75,0,0,1-1.16-3.23,3.67,3.67,0,0,1-2.42-2.4,3.74,3.74,0,0,1,.37-3,16.21,16.21,0,0,0-2.14-.84c-2.92-.9-6-1.06-8.28.18a6.88,6.88,0,0,0-3.25,4,11.48,11.48,0,0,0,3,12.63c2.19,2.2,10.42,8.47,13.54,7a5.17,5.17,0,0,0,2.16-2.47A19.1,19.1,0,0,0,1676,66.41Zm-13.7,1.87a4.58,4.58,0,0,1-1.19-5,2.82,2.82,0,0,1,1-1.41,2.57,2.57,0,0,1,.29-0.19,4.39,4.39,0,0,1,3.3-.07,5.56,5.56,0,0,1,2,1.09,4.84,4.84,0,0,1,1.25,1.66,6.71,6.71,0,0,1-.44,5.76,2.06,2.06,0,0,1-.86,1,1,1,0,0,1-.35.08C1665.92,71.25,1663.09,69.08,1662.29,68.28Z" transform="translate(-1636.43 -40.87)"/><text class="cls-2" x="-1636.43" y="-40.87"/><g class="cls-7"><path d="M1745.92,54.91H1753c8.31,0,12.07,4.36,12.07,14,0,9.77-4,14.33-12.19,14.33h-6.94V54.91Zm2.42,26H1753c6.34,0,9.57-2.91,9.57-11.7s-3.43-12-9.81-12h-4.4V80.9Z" transform="translate(-1636.43 -40.87)"/><path d="M1773.45,53a2,2,0,1,1-1.94,2A1.93,1.93,0,0,1,1773.45,53Zm-1,8.48h2.34V83.2h-2.34V61.45Z" transform="translate(-1636.43 -40.87)"/><path d="M1797.86,83.68c0,5.65-3.35,8.43-8.68,8.43a10.21,10.21,0,0,1-6.7-2.1l1.37-2a8,8,0,0,0,5.81,1.94c4.2,0,5.89-2.14,5.89-6.26V81.42h-0.16a8.7,8.7,0,0,1-5.61,1.86c-4.44,0-8.19-2.95-8.19-10.21s3.39-11.79,10.57-11.79a13.23,13.23,0,0,1,5.69,1.09V83.68Zm-6.22-20.22c-4.52,0-7.63,2.95-7.63,9.16,0,6.74,3.27,8.52,6.46,8.52a6.47,6.47,0,0,0,5-2.42V64.15A10.25,10.25,0,0,0,1791.65,63.46Z" transform="translate(-1636.43 -40.87)"/><path d="M1807.15,53a2,2,0,1,1-1.94,2A1.93,1.93,0,0,1,1807.15,53Zm-1,8.48h2.34V83.2h-2.34V61.45Z" transform="translate(-1636.43 -40.87)"/><path d="M1817.2,77.75V63.46h-3.35V61.93l3.35-.48,0.65-5.77h1.7v5.77h6.13v2h-6.13v14c0,2.7,1.33,3.79,3.39,3.79a6.38,6.38,0,0,0,3.43-.73l0.69,2a9.56,9.56,0,0,1-4.52.89C1819,83.4,1817.2,81.5,1817.2,77.75Z" transform="translate(-1636.43 -40.87)"/><path d="M1845.29,67.58V77.75c0,2.14.65,3.67,2.3,3.67h0.52v1.82a2.52,2.52,0,0,1-.65.08,3.88,3.88,0,0,1-4-2.7h-0.16a8.18,8.18,0,0,1-6.7,3c-4,0-6.26-2.82-6.26-5.69,0-4.76,4.8-7.14,12.71-7.06V68.35c0-3.87-1.82-5-5-5a6,6,0,0,0-5.29,2.7l-1.74-1.45a8.3,8.3,0,0,1,7.14-3.43C1842.63,61.16,1845.29,63.22,1845.29,67.58Zm-2.18,5.33c-5.61-.16-10.33,1.21-10.33,4.84,0,2.14,1.53,3.87,4.32,3.87a7.29,7.29,0,0,0,6-3.35V72.91Z" transform="translate(-1636.43 -40.87)"/><path d="M1856.19,52.57v26c0,2,.61,2.91,2.38,2.91a4.4,4.4,0,0,0,2.1-.52V83a7.37,7.37,0,0,1-2.7.48c-2.87,0-4.12-1.7-4.12-4.32V52.57h2.34Z" transform="translate(-1636.43 -40.87)"/></g></svg>