<svg xmlns="http://www.w3.org/2000/svg" viewBox="0 0 241.82 56.46"><defs><style>.cls-1{fill:#f1bb45;}.cls-2{fill:#71bf5d;}.cls-3{fill:#f5cb5c;}.cls-4{fill:#fff;}</style></defs><title>Asset 5</title><g id="Layer_2" data-name="Layer 2"><g id="Layer_1-2" data-name="Layer 1"><polygon class="cls-1" points="116.92 20.5 119.49 20.5 123.1 22.29 120.77 25.62 125.89 26.9 128.45 28.18 127.17 37.15 120.77 39.71 107.96 29.46 111.8 20.5 116.92 20.5"/><path class="cls-2" d="M104.17,7.23s6.57.58,7.49,5.53S104.37,13.3,104.17,7.23Z"/><path class="cls-2" d="M120.75,0s3.09,10.29-4.25,14.4S111.17,3.64,120.75,0Z"/><path class="cls-3" d="M131.54,29.68a4.54,4.54,0,0,0-.74-.23A3,3,0,0,1,129,27.18l-.21-.93-.54.23-.34.15a3.77,3.77,0,0,1-1.27.28,1.24,1.24,0,0,0-1.19,1.27,7.84,7.84,0,0,1-1.36,4.56l-5.62,7.57a1.5,1.5,0,0,1-1.2.67,1.52,1.52,0,0,1-1.21-.67c-2.65-3.55-7.25-6.93-8.49-11.27a7.82,7.82,0,0,1,.44-5.57c1.69-3.39,5.91-2.6,8.36-.39a1.3,1.3,0,0,0,1.7,0,3.89,3.89,0,0,1,4.91-.4c0-.14.06-.28.1-.42a3.7,3.7,0,0,0,.22-.9c-1.64-.45-3.22-.65-3.84-2.58a3.65,3.65,0,0,1,.22-2.73l-1.37-2.35c-.66,0-1.35,0-2.07,0l-15.76,0a1.28,1.28,0,0,0-1.29,1.27V15a1.3,1.3,0,0,0,1.17,1.27c1.82.18,2.72.83,2.72,2V41.62c0,1.12-.9,1.77-2.72,2a1.28,1.28,0,0,0-1.17,1.26h0a1.28,1.28,0,0,0,1.28,1.28h15.77a26.25,26.25,0,0,0,7-.83,11.5,11.5,0,0,0,5-2.79,12.09,12.09,0,0,0,3-5.24,24.56,24.56,0,0,0,.94-5.76C132.21,30.74,132,30,131.54,29.68Z"/><path class="cls-4" d="M117.26,24c-2.14-2.86-7.32-4.39-9.23-.55a7.82,7.82,0,0,0-.44,5.57c1.24,4.34,5.84,7.72,8.49,11.27a1.52,1.52,0,0,0,1.21.67,1.5,1.5,0,0,0,1.2-.67l5.62-7.57a8.14,8.14,0,0,0,1.23-6,3.43,3.43,0,0,1-1.22-.71A3.58,3.58,0,0,1,123,22.71C121.19,21.44,118.8,21.94,117.26,24Z"/><path class="cls-1" d="M120,29.12a1.74,1.74,0,0,1,.86,1,2.24,2.24,0,0,1,.17.93,1.92,1.92,0,0,1-.21.82,2.79,2.79,0,0,1-2,1.34.9.9,0,0,1-.54,0m0,0c-.5-.24-.54-1.92-.48-2.42a1.89,1.89,0,0,1,1.31-1.67,1.11,1.11,0,0,1,.84,0"/><path class="cls-1" d="M115.38,33.21a.87.87,0,0,1-.53,0,2.81,2.81,0,0,1-2-1.34,2.26,2.26,0,0,1-.21-.82,2.42,2.42,0,0,1,.17-.93,1.74,1.74,0,0,1,.86-1m0,0a1.11,1.11,0,0,1,.84,0,1.88,1.88,0,0,1,1.31,1.67c.06.5,0,2.18-.48,2.42"/><path class="cls-4" d="M12.11,45.45C4.67,45.45,0,41.46,0,30.33,0,19.49,5.27,14.81,12.49,14.81c7.4,0,12.2,4.08,12.2,15.18C24.69,40.82,19.38,45.45,12.11,45.45Zm.38-5.39c3.4,0,5.49-2.42,5.49-9.78s-2.26-10.07-5.87-10.07c-3.19,0-5.44,2.3-5.44,9.69S8.88,40.06,12.49,40.06Z"/><path class="cls-4" d="M32,12.82h1.44a2.45,2.45,0,0,1,2.45,2.44v6.82H36a8.68,8.68,0,0,1,4.67-1.32c5.44,0,9.48,3,9.48,11.82,0,7.31-4.29,12.87-12.28,12.87a21.33,21.33,0,0,1-6.69-.87,2.44,2.44,0,0,1-1.69-2.33v-27A2.45,2.45,0,0,1,32,12.82ZM43.81,33.09c0-5.36-1.87-7.06-4.63-7.06a5.24,5.24,0,0,0-1.54.23A2.44,2.44,0,0,0,36,28.6v9.31a2.43,2.43,0,0,0,2.4,2.44h0C41.77,40.35,43.81,38.19,43.81,33.09Z"/><path class="cls-4" d="M53.76,28c0-3.91,3.35-7.44,8.92-7.44a13.46,13.46,0,0,1,5.57,1.08A2.8,2.8,0,0,1,69,26.23h0a2.8,2.8,0,0,1-3.42.39,6,6,0,0,0-3.09-.88c-1.44,0-2.38.76-2.38,1.87,0,3.61,11.31,2.33,11.31,10.37,0,3.18-2.51,7.47-9.48,7.47a15.13,15.13,0,0,1-7-1.6,2.79,2.79,0,0,1-.76-4.29l0,0A2.82,2.82,0,0,1,57.89,39,8.2,8.2,0,0,0,62.3,40.4c2,0,2.76-.94,2.76-2C65.06,34.87,53.76,36,53.76,28Z"/><path class="cls-4" d="M76.28,37.34v-9.9a1.53,1.53,0,0,0-1.53-1.53h0a1.53,1.53,0,0,1-1.53-1.53V22.94a1.53,1.53,0,0,1,1-1.42l1.55-.64a1.49,1.49,0,0,0,.84-.85L78.15,16a1.54,1.54,0,0,1,1.43-1h1.5a1.53,1.53,0,0,1,1.53,1.53v3A1.54,1.54,0,0,0,84.14,21h2.93a1.52,1.52,0,0,1,1.53,1.53v1.83a1.53,1.53,0,0,1-1.53,1.53H84.14a1.53,1.53,0,0,0-1.53,1.53V37.51A2.27,2.27,0,0,0,85.12,40,5.91,5.91,0,0,0,87,39.67a1.55,1.55,0,0,1,2,1l.64,1.85a1.54,1.54,0,0,1-.9,1.94,15.09,15.09,0,0,1-5.34.78C79.25,45.24,76.28,43.16,76.28,37.34Z"/><path class="cls-4" d="M140.63,21.29h1.08A1.26,1.26,0,0,1,143,22.55V45.14a1.27,1.27,0,0,1-1.26,1.26h-1.08a1.26,1.26,0,0,1-1.26-1.26V22.55A1.25,1.25,0,0,1,140.63,21.29Z"/><path class="cls-4" d="M169.55,46.58c0,6.6-4.06,9.88-10.34,9.88a12.8,12.8,0,0,1-7.28-1.88,1.24,1.24,0,0,1-.28-1.76l.59-.81a1.22,1.22,0,0,1,1.71-.3,9.48,9.48,0,0,0,5.68,1.56c4.56,0,6.41-2.21,6.41-6.69V44.27h-.18a9.5,9.5,0,0,1-6.14,2c-5.17,0-9.56-3.23-9.56-11.77,0-8,3.93-13.43,12.23-13.43a18.82,18.82,0,0,1,6.33.94,1.26,1.26,0,0,1,.83,1.19ZM161.89,24.2c-4.85,0-8.08,3.18-8.08,9.83,0,7.2,3.32,9.09,6.88,9.09a6.92,6.92,0,0,0,5-2.09,1.18,1.18,0,0,0,.3-.83V25.81a1.25,1.25,0,0,0-.92-1.22A12.63,12.63,0,0,0,161.89,24.2Z"/><path class="cls-4" d="M179.67,21.29h1.08A1.26,1.26,0,0,1,182,22.55V45.14a1.27,1.27,0,0,1-1.26,1.26h-1.08a1.26,1.26,0,0,1-1.26-1.26V22.55A1.25,1.25,0,0,1,179.67,21.29Z"/><path class="cls-4" d="M140.63,17.6h1.08A1.27,1.27,0,0,0,143,16.34v-1.1A1.26,1.26,0,0,0,141.71,14h-1.08a1.25,1.25,0,0,0-1.26,1.26v1.1A1.26,1.26,0,0,0,140.63,17.6Z"/><path class="cls-4" d="M179.67,17.6h1.08A1.27,1.27,0,0,0,182,16.34v-1.1A1.26,1.26,0,0,0,180.75,14h-1.08a1.25,1.25,0,0,0-1.26,1.26v1.1A1.26,1.26,0,0,0,179.67,17.6Z"/><path class="cls-4" d="M191.33,39.7V25.46a1.25,1.25,0,0,0-1.26-1.26h-1.22a1.26,1.26,0,0,1-1.26-1.26h0a1.26,1.26,0,0,1,1-1.24l1.84-.34a1.28,1.28,0,0,0,1-1l.78-4.59a1.26,1.26,0,0,1,1.24-1.05h.12A1.25,1.25,0,0,1,194.88,16V20a1.26,1.26,0,0,0,1.26,1.26h4.41a1.26,1.26,0,0,1,1.26,1.26v.39a1.27,1.27,0,0,1-1.26,1.26h-4.41a1.26,1.26,0,0,0-1.26,1.26V39.52c0,2.81,1.43,4,3.65,4a9,9,0,0,0,2.73-.37,1.25,1.25,0,0,1,1.56.78l.17.48A1.27,1.27,0,0,1,202.2,46a13.48,13.48,0,0,1-4.46.63C193.59,46.63,191.33,44.46,191.33,39.7Z"/><path class="cls-4" d="M224.42,28.54V39.89c0,2.26.69,3.78,2.45,3.78h.64V46.3a2.73,2.73,0,0,1-1.29.28,4.51,4.51,0,0,1-4.57-3h-.18A9.07,9.07,0,0,1,214,46.9c-4.66,0-7.25-3.27-7.25-6.69,0-5.27,4.94-8,13.1-8.12a1.27,1.27,0,0,0,1.26-1.26V29.37c0-4.11-2-5.31-5.31-5.31a6.39,6.39,0,0,0-5,2.1,1.23,1.23,0,0,1-1.7.15l-.62-.49a1.26,1.26,0,0,1-.13-1.86,10,10,0,0,1,7.57-3C221.23,20.92,224.42,23.27,224.42,28.54Zm-3.32,7.6a1.27,1.27,0,0,0-1.29-1.26c-5.42,0-9.51,1.54-9.51,5,0,2.22,1.61,4,4.52,4a7.75,7.75,0,0,0,6-3.08,1.26,1.26,0,0,0,.24-.75Z"/><path class="cls-4" d="M235.85,11.37a1.25,1.25,0,0,1,1.26,1.26V40.44c0,2.22.74,3.19,2.63,3.19a5.86,5.86,0,0,0,.61,0,1.26,1.26,0,0,1,1.47,1.23v.43a1.25,1.25,0,0,1-1,1.23,10,10,0,0,1-2.18.24c-3.46,0-5.12-2-5.12-5.31V12.63a1.25,1.25,0,0,1,1.26-1.26Z"/></g></g></svg>