<svg viewBox="0 0 224.24 51.25" xmlns="http://www.w3.org/2000/svg"><ellipse cx="27.95" cy="26.32" fill="#5e5e5e" rx="8.5" ry="8.92"/><g transform="translate(-1636.43 -40.87)"><path d="m1688.76 60.77a8.23 8.23 0 0 0 -4.4 1.24h-.16v-8.72h-6v13.8c1.18-.6 2-.09 2 1.63 0 5.09 1.64 10-1.49 14.05a18.34 18.34 0 0 0 7.4 1.24c7.52 0 11.56-5.24 11.56-12.12.01-8.32-3.79-11.12-8.91-11.12zm-2.2 18.44a6.83 6.83 0 0 1 -2.28-.32v-12a4.05 4.05 0 0 1 3-1.2c2.6 0 4.36 1.6 4.36 6.64.04 4.84-1.88 6.87-5.07 6.87z" opacity=".6"/><path d="m1701 67.61c0-3.68 3.16-7 8.4-7 4.08 0 6.68 1.44 8.16 3.16l-3.88 3.8a6 6 0 0 0 -4.44-2.12c-1.36 0-2.24.72-2.24 1.76 0 3.4 10.64 2.2 10.64 9.76 0 3-2.36 7-8.92 7-5 0-8-2.08-9.2-3.4l3.6-4.16a8.24 8.24 0 0 0 5.92 2.8c1.88 0 2.6-.88 2.6-1.92.04-3.29-10.64-2.16-10.64-9.68z" opacity=".6"/><path d="m1722.25 76.37v-10.76h-2.88v-3.76l2.92-1.2 2.08-5.32h3.84v5.67h5.64v4.6h-5.64v10.93a2.13 2.13 0 0 0 2.36 2.36 5.32 5.32 0 0 0 3.08-1l1.56 4.52c-.76.56-2.52 1.4-6.28 1.4s-6.68-1.97-6.68-7.44z" opacity=".6"/><path d="m1646.88 58.67-.12-.1c-4.54-3.38-10.33 1.28-10.33 1.28a10 10 0 0 0 8.74 2.44v-.07a18.94 18.94 0 0 1 1.71-3.55z" fill="#71bf5d"/><path d="m1652.43 53.12c.07-7.45-8.06-12.25-8.06-12.25-3.17 6.69-.38 14.74 2.79 17.38a17.4 17.4 0 0 1 1.58-2.1 15.82 15.82 0 0 1 3.69-3.03z" fill="#71bf5d"/><path d="m1677.52 66.39a4.23 4.23 0 0 1 -.89-1.32 4.09 4.09 0 0 1 -3.73-1 4.28 4.28 0 0 1 -1.33-3.68 4.19 4.19 0 0 1 -2.76-2.73 4.27 4.27 0 0 1 .43-3.48 18.5 18.5 0 0 0 -2.44-1c-3.33-1-6.8-1.22-9.45.2a7.85 7.85 0 0 0 -3.71 4.59c-1.88 5.47-.68 10.33 3.39 14.41 2.5 2.51 11.9 9.67 15.45 8a5.9 5.9 0 0 0 2.46-2.82 21.8 21.8 0 0 0 2.58-11.17zm-15.64 2.13a5.22 5.22 0 0 1 -1.35-5.75 3.21 3.21 0 0 1 1.15-1.61 2.94 2.94 0 0 1 .33-.22 5 5 0 0 1 3.77-.08 6.35 6.35 0 0 1 2.33 1.25 5.52 5.52 0 0 1 1.43 1.9 7.66 7.66 0 0 1 -.51 6.57 2.35 2.35 0 0 1 -1 1.12 1.13 1.13 0 0 1 -.41.09c-1.62.12-4.82-2.35-5.73-3.27z" fill="#f16a68" stroke="#f16a68" stroke-miterlimit="10"/><path d="m1679.68 66.13a4.1 4.1 0 0 0 -.59-.18 2.4 2.4 0 0 1 -1.42-1.85l-.17-.76-.43.19-.27.12a2.82 2.82 0 0 1 -3-.51 3 3 0 0 1 -.81-3 2.89 2.89 0 0 0 .18-.73c-1.31-.36-2.56-.52-3.07-2.1a3.1 3.1 0 0 1 1.34-3.51 10.5 10.5 0 0 0 -2.26-1.82 11 11 0 0 0 -2.95-1 20.25 20.25 0 0 0 -11.77 1.09 17.49 17.49 0 0 0 -2 1 15.82 15.82 0 0 0 -3.69 3 17.4 17.4 0 0 0 -1.58 2.1l-.28.43a18.94 18.94 0 0 0 -1.69 3.56v.07a22.52 22.52 0 0 0 -1.22 7.5 21.76 21.76 0 0 0 1.24 7.41 17.67 17.67 0 0 0 3.55 6 16.24 16.24 0 0 0 5.69 4 20.62 20.62 0 0 0 15.2 0 16.31 16.31 0 0 0 5.66-4 17.69 17.69 0 0 0 3.55-6 21.93 21.93 0 0 0 1.2-5.55c.08-1 .25-1.94.26-2.92-.05-.55-.02-2.16-.67-2.54zm-7.15 8.75a4.44 4.44 0 0 1 -1.85 2.12c-2.67 1.27-9.74-4.12-11.62-6a9.85 9.85 0 0 1 -2.55-10.84 5.9 5.9 0 0 1 2.79-3.45c2-1.06 4.6-.92 7.11-.15a13.91 13.91 0 0 1 1.84.72 3.21 3.21 0 0 0 -.32 2.61 3.15 3.15 0 0 0 2.07 2.11 3.22 3.22 0 0 0 1 2.77 3.07 3.07 0 0 0 2.8.72 3.18 3.18 0 0 0 .67 1" fill="#f5cb5c"/></g><text opacity=".6" x="-1636.43" y="-40.87"/><path d="m1646.88 58.67-.12-.1c-4.54-3.38-10.33 1.28-10.33 1.28a10 10 0 0 0 8.74 2.44v-.07a18.94 18.94 0 0 1 1.71-3.55z" fill="#71bf5d" transform="translate(-1636.43 -40.87)"/><path d="m1652.43 53.12c.07-7.45-8.06-12.25-8.06-12.25-3.17 6.69-.38 14.74 2.79 17.38a17.4 17.4 0 0 1 1.58-2.1 15.82 15.82 0 0 1 3.69-3.03z" fill="#71bf5d" transform="translate(-1636.43 -40.87)"/><path d="m1676 66.41a3.7 3.7 0 0 1 -.78-1.16 3.58 3.58 0 0 1 -3.27-.84 3.75 3.75 0 0 1 -1.16-3.23 3.67 3.67 0 0 1 -2.42-2.4 3.74 3.74 0 0 1 .37-3 16.21 16.21 0 0 0 -2.14-.84c-2.92-.9-6-1.06-8.28.18a6.88 6.88 0 0 0 -3.25 4 11.48 11.48 0 0 0 3 12.63c2.19 2.2 10.42 8.47 13.54 7a5.17 5.17 0 0 0 2.16-2.47 19.1 19.1 0 0 0 2.23-9.87zm-13.7 1.87a4.58 4.58 0 0 1 -1.19-5 2.82 2.82 0 0 1 1-1.41 2.57 2.57 0 0 1 .29-.19 4.39 4.39 0 0 1 3.3-.07 5.56 5.56 0 0 1 2 1.09 4.84 4.84 0 0 1 1.25 1.66 6.71 6.71 0 0 1 -.44 5.76 2.06 2.06 0 0 1 -.86 1 1 1 0 0 1 -.35.08c-1.38.05-4.21-2.12-5.01-2.92z" fill="#fff" transform="translate(-1636.43 -40.87)"/><text opacity=".6" x="-1636.43" y="-40.87"/><g opacity=".2" transform="translate(-1636.43 -40.87)"><path d="m1745.92 54.91h7.08c8.31 0 12.07 4.36 12.07 14 0 9.77-4 14.33-12.19 14.33h-6.94v-28.33zm2.42 26h4.66c6.34 0 9.57-2.91 9.57-11.7s-3.43-12-9.81-12h-4.4v23.69z"/><path d="m1773.45 53a2 2 0 1 1 -1.94 2 1.93 1.93 0 0 1 1.94-2zm-1 8.48h2.34v21.72h-2.34v-21.75z"/><path d="m1797.86 83.68c0 5.65-3.35 8.43-8.68 8.43a10.21 10.21 0 0 1 -6.7-2.1l1.37-2a8 8 0 0 0 5.81 1.94c4.2 0 5.89-2.14 5.89-6.26v-2.27h-.16a8.7 8.7 0 0 1 -5.61 1.86c-4.44 0-8.19-2.95-8.19-10.21s3.39-11.79 10.57-11.79a13.23 13.23 0 0 1 5.69 1.09v21.31zm-6.22-20.22c-4.52 0-7.63 2.95-7.63 9.16 0 6.74 3.27 8.52 6.46 8.52a6.47 6.47 0 0 0 5-2.42v-14.57a10.25 10.25 0 0 0 -3.82-.69z"/><path d="m1807.15 53a2 2 0 1 1 -1.94 2 1.93 1.93 0 0 1 1.94-2zm-1 8.48h2.34v21.72h-2.34v-21.75z"/><path d="m1817.2 77.75v-14.29h-3.35v-1.53l3.35-.48.65-5.77h1.7v5.77h6.13v2h-6.13v14c0 2.7 1.33 3.79 3.39 3.79a6.38 6.38 0 0 0 3.43-.73l.69 2a9.56 9.56 0 0 1 -4.52.89c-3.54 0-5.34-1.9-5.34-5.65z"/><path d="m1845.29 67.58v10.17c0 2.14.65 3.67 2.3 3.67h.52v1.82a2.52 2.52 0 0 1 -.65.08 3.88 3.88 0 0 1 -4-2.7h-.16a8.18 8.18 0 0 1 -6.7 3c-4 0-6.26-2.82-6.26-5.69 0-4.76 4.8-7.14 12.71-7.06v-2.52c0-3.87-1.82-5-5-5a6 6 0 0 0 -5.29 2.7l-1.74-1.45a8.3 8.3 0 0 1 7.14-3.43c4.47-.01 7.13 2.05 7.13 6.41zm-2.18 5.33c-5.61-.16-10.33 1.21-10.33 4.84 0 2.14 1.53 3.87 4.32 3.87a7.29 7.29 0 0 0 6-3.35v-5.36z"/><path d="m1856.19 52.57v26c0 2 .61 2.91 2.38 2.91a4.4 4.4 0 0 0 2.1-.52v2.04a7.37 7.37 0 0 1 -2.7.48c-2.87 0-4.12-1.7-4.12-4.32v-26.59z"/></g></svg>