<svg xmlns="http://www.w3.org/2000/svg" viewBox="0 0 1225.41 272.5"><defs><style>.cls-1{fill:#fff;}</style></defs><title>Asset 7</title><g id="Layer_2" data-name="Layer 2"><g id="Layer_1-2" data-name="Layer 1"><path class="cls-1" d="M669.16,143.25a25.54,25.54,0,0,0-3.58-1.09c-4.92-1.65-7.49-6.36-8.59-10.95l-1-4.49-2.61,1.11-1.63.69a17.24,17.24,0,0,1-6.1,1.36,5.79,5.79,0,0,0-2.43.62l-1.3-.66-2.64-.66c1.86,10.52-.7,21.69-6,28.83l-27.09,36.53a7.27,7.27,0,0,1-5.81,3.24,7.35,7.35,0,0,1-5.83-3.24c-12.78-17.13-35-33.45-41-54.39a37.73,37.73,0,0,1,2.11-26.89c9.22-18.51,34.2-11.13,44.54,2.69,7.27-9.8,18.38-12.33,27-6.74h0c.22.14.45.27.67.43a15.26,15.26,0,0,1,.48-2.08,17.1,17.1,0,0,0,1.06-4.34c-7.94-2.14-15.54-3.1-18.57-12.42A17.87,17.87,0,0,1,612,77.59l-6.61-11.31c-1.21,0-2.46-.09-3.71-.12C630.43,44.58,617,0,617,0,591,9.92,576.51,37.08,575.22,55.32,567,37.19,541,34.9,541,34.9c.45,13,8.55,24.48,17,31.06l-38.72-.1A6.17,6.17,0,0,0,513.11,72v.41a6.2,6.2,0,0,0,5.65,6.12Q531.89,79.9,531.88,88V200.87q0,8.13-13.12,9.46a6.2,6.2,0,0,0-5.65,6.12h0a6.16,6.16,0,0,0,6.16,6.17h76.12q19.2,0,33.76-4a55.53,55.53,0,0,0,24.37-13.48q9.81-9.48,14.67-25.29A119.14,119.14,0,0,0,672.7,152C672.36,148.37,671.48,144.55,669.16,143.25Z"/><path class="cls-1" d="M613.38,140.54c1.9.8,3.28,2.73,4.16,5a10.9,10.9,0,0,1,.82,4.47,9.61,9.61,0,0,1-1,4c-1.82,3.58-5.61,5.66-9.42,6.46a4.1,4.1,0,0,1-2.57-.1m0,0c-2.44-1.16-2.6-9.27-2.32-11.69a9.1,9.1,0,0,1,6.3-8,5.41,5.41,0,0,1,4.06,0"/><path class="cls-1" d="M591.13,160.28a4.1,4.1,0,0,1-2.57.1c-3.82-.8-7.6-2.88-9.42-6.46a9.31,9.31,0,0,1-1-4,10.9,10.9,0,0,1,.82-4.47,8.51,8.51,0,0,1,4.15-5m0,0a5.41,5.41,0,0,1,4.06,0,9.12,9.12,0,0,1,6.31,8c.28,2.42.11,10.53-2.32,11.69"/><path class="cls-1" d="M63.49,224.17C24.5,224.17,0,203.23,0,144.86c0-56.8,27.62-81.3,65.49-81.3,38.76,0,63.93,21.38,63.93,79.52C129.42,199.89,101.58,224.17,63.49,224.17Zm2-28.29c17.82,0,28.74-12.7,28.74-51.24,0-39-11.81-52.79-30.74-52.79-16.71,0-28.52,12-28.52,50.79C35,182.07,46.56,195.88,65.49,195.88Z"/><path class="cls-1" d="M167.64,53.09h7.54A12.82,12.82,0,0,1,188,65.92v35.73h.89c4.9-3.34,14-6.91,24.51-6.91,28.51,0,49.67,15.6,49.67,61.93,0,38.32-22.5,67.5-64.38,67.5-15.33,0-26.15-1.71-35.07-4.59a12.78,12.78,0,0,1-8.81-12.2V65.92A12.82,12.82,0,0,1,167.64,53.09Zm62,106.25c0-28.06-9.8-37-24.28-37a26.61,26.61,0,0,0-8.07,1.21,12.78,12.78,0,0,0-8.86,12.22v48.81A12.74,12.74,0,0,0,201,197.44h.14C219,197.44,229.66,186.08,229.66,159.34Z"/><path class="cls-1" d="M281.78,132.84c0-20.5,17.6-39,46.78-39,11.88,0,21.5,2.2,29.16,5.66a14.71,14.71,0,0,1,4.07,23.9h0a14.7,14.7,0,0,1-17.93,2,31.13,31.13,0,0,0-16.19-4.65c-7.58,0-12.48,4-12.48,9.8,0,18.93,59.26,12.25,59.26,54.35,0,16.71-13.15,39.21-49.68,39.21-15.8,0-28-3.79-36.89-8.41-8.29-4.32-10.09-15.45-4-22.51l.17-.2a14.86,14.86,0,0,1,19.38-2.55,43.08,43.08,0,0,0,23.09,7.16C337,197.66,341,192.76,341,187,341,168.7,281.78,174.72,281.78,132.84Z"/><path class="cls-1" d="M399.83,181.62v-51.9a8,8,0,0,0-8-8h0a8,8,0,0,1-8-8v-7.55a8,8,0,0,1,5-7.41l8.11-3.34a8,8,0,0,0,4.43-4.5l8.34-21.33a8,8,0,0,1,7.47-5.1H425a8,8,0,0,1,8,8V88.06a8,8,0,0,0,8,8h15.38a8,8,0,0,1,8,8v9.58a8,8,0,0,1-8,8H441a8,8,0,0,0-8,8v52.79c0,8.69,4.9,13.15,13.15,13.15a31,31,0,0,0,10-1.79,8.13,8.13,0,0,1,10.23,5.2l3.36,9.73A8,8,0,0,1,465,218.94c-5.74,2.2-14.58,4.11-28,4.11C415.43,223.05,399.83,212.14,399.83,181.62Z"/><path class="cls-1" d="M709.43,93.18h5.51a6.43,6.43,0,0,1,6.42,6.42V214.78a6.43,6.43,0,0,1-6.42,6.42h-5.51a6.42,6.42,0,0,1-6.42-6.42V99.6A6.42,6.42,0,0,1,709.43,93.18Z"/><path class="cls-1" d="M856.9,222.14c0,33.65-20.71,50.36-52.71,50.36-18.48,0-30.25-4.92-37.1-9.55a6.38,6.38,0,0,1-1.46-9l3-4.12a6.34,6.34,0,0,1,8.77-1.55c6.37,4.54,15.49,8,28.92,8,23.3,0,32.71-11.29,32.71-34.12V210.38h-.94c-4,3.53-14.83,10.11-31.3,10.11-26.36,0-48.71-16.47-48.71-60,0-40.94,20-68.48,62.36-68.48,13.55,0,24.47,2,32.23,4.81a6.43,6.43,0,0,1,4.24,6.07ZM817.84,108c-24.71,0-41.18,16.23-41.18,50.12,0,36.71,16.94,46.36,35.06,46.36,9.32,0,19.23-3.79,25.52-10.63a6.23,6.23,0,0,0,1.54-4.24v-73.4a6.4,6.4,0,0,0-4.69-6.21A63.86,63.86,0,0,0,817.84,108Z"/><path class="cls-1" d="M908.5,93.18H914a6.43,6.43,0,0,1,6.43,6.42V214.78A6.43,6.43,0,0,1,914,221.2H908.5a6.43,6.43,0,0,1-6.42-6.42V99.6A6.43,6.43,0,0,1,908.5,93.18Z"/><path class="cls-1" d="M709.43,74.35h5.51a6.43,6.43,0,0,0,6.42-6.43V62.31a6.42,6.42,0,0,0-6.42-6.42h-5.51A6.41,6.41,0,0,0,703,62.31v5.61A6.42,6.42,0,0,0,709.43,74.35Z"/><path class="cls-1" d="M908.5,74.35H914a6.43,6.43,0,0,0,6.43-6.43V62.31A6.42,6.42,0,0,0,914,55.89H908.5a6.42,6.42,0,0,0-6.42,6.42v5.61A6.43,6.43,0,0,0,908.5,74.35Z"/><path class="cls-1" d="M968,187.08V114.43a6.42,6.42,0,0,0-6.43-6.42h-6.21a6.42,6.42,0,0,1-6.42-6.43h0a6.41,6.41,0,0,1,5.25-6.31l9.4-1.74a6.43,6.43,0,0,0,5.16-5.24l4-23.42A6.42,6.42,0,0,1,979,59.53h.63A6.43,6.43,0,0,1,986.09,66V86.76a6.41,6.41,0,0,0,6.42,6.42H1015a6.43,6.43,0,0,1,6.43,6.42v2A6.43,6.43,0,0,1,1015,108H992.51a6.41,6.41,0,0,0-6.42,6.42v71.71c0,14.35,7.29,20.23,18.59,20.23a45.34,45.34,0,0,0,14-1.89,6.35,6.35,0,0,1,7.91,4l.88,2.47a6.47,6.47,0,0,1-4,8.26c-5.12,1.78-12.35,3.19-22.72,3.19C979.5,222.38,968,211.32,968,187.08Z"/><path class="cls-1" d="M1136.69,130.13V188c0,11.53,3.53,19.3,12.48,19.3h3.29v13.41a14.34,14.34,0,0,1-6.59,1.41c-12.7,0-20.24-6.82-23.3-15.53h-.94c-6.12,7.06-16.47,17.18-38.12,17.18-23.77,0-37-16.71-37-34.12,0-26.88,25.17-40.76,66.76-41.42a6.47,6.47,0,0,0,6.43-6.41v-7.48c0-20.94-10.12-27.06-27.06-27.06-13,0-20.94,5.43-25.63,10.73a6.35,6.35,0,0,1-8.71.73l-3.11-2.46a6.43,6.43,0,0,1-.67-9.49C1061,100,1072.8,91.3,1093.16,91.3,1120.46,91.3,1136.69,103.3,1136.69,130.13Zm-16.94,38.79a6.46,6.46,0,0,0-6.54-6.43c-27.65.08-48.53,7.86-48.53,25.76,0,11.3,8.24,20.48,23.07,20.48,13.63,0,24.59-7.61,30.77-15.71a6.24,6.24,0,0,0,1.23-3.83Z"/><path class="cls-1" d="M1195,42.59a6.42,6.42,0,0,1,6.43,6.42V190.84c0,11.3,3.76,16.24,13.41,16.24a23.21,23.21,0,0,0,3.09-.21,6.46,6.46,0,0,1,7.5,6.32v2.17a6.42,6.42,0,0,1-4.86,6.27,49.5,49.5,0,0,1-11.14,1.22c-17.65,0-26.13-10.36-26.13-27.07V49a6.42,6.42,0,0,1,6.43-6.42Z"/></g></g></svg>