<svg id="Layer_1" data-name="Layer 1" xmlns="http://www.w3.org/2000/svg" viewBox="0 0 656.14 703.67"><defs><style>.cls-1{fill:#71bf5d;}.cls-2{fill:#fb5356;}.cls-3{fill:#fff;opacity:0.3;}</style></defs><title>main-fruit</title><path class="cls-1" d="M-656.27,497.58a1.94,1.94,0,0,0,.56-2.54v0c-28.88-49.16-96.55-35.47-109.65-32.28a2,2,0,0,0-1.35,2.67c14.88,34.61,50.47,55.48,78.44,61,0.17-.19.32-0.4,0.49-0.59A211.38,211.38,0,0,1-656.27,497.58Z" transform="translate(901.99 -350.88)"/><path class="cls-1" d="M-590.34,480.41c12-43.59-3.33-87.88-17.35-116.07a24.27,24.27,0,0,0-41.5-3.27c-29.27,41.26-37.74,93.1-32.61,131.24,2.2,16.36,19.82,25.54,34.71,18.42l0.26-.13a172.2,172.2,0,0,1,37.92-12.76A24.51,24.51,0,0,0-590.34,480.41Z" transform="translate(901.99 -350.88)"/><path class="cls-2" d="M-380.92,451c153.14,104.39,177.45,322,65.86,470s-322,177.45-470,65.86c-188.77-142.36-147.22-442.54,111.68-495C-551.49,467.17-534.74,346.18-380.92,451Z" transform="translate(901.99 -350.88)"/><path class="cls-3" d="M-468.84,587.61c79.18,54,91.75,166.49,34.05,243a173.51,173.51,0,0,1-243,34.05c-97.6-73.61-76.12-228.81,57.74-255.94C-557,596-548.37,533.4-468.84,587.61Z" transform="translate(901.99 -350.88)"/></svg>