<?xml version="1.0" encoding="utf-8"?>
<!-- Generator: Adobe Illustrator 23.1.1, SVG Export Plug-In . SVG Version: 6.00 Build 0)  -->
<svg version="1.1" id="Layer_1" xmlns="http://www.w3.org/2000/svg" xmlns:xlink="http://www.w3.org/1999/xlink" x="0px" y="0px"
	 viewBox="0 0 300.2 346.2" style="enable-background:new 0 0 300.2 346.2;" xml:space="preserve">
<style type="text/css">
	.st0{fill:#71BF5D;}
	.st1{fill:#D4DC93;}
	.st2{fill:#FFFFFF;}
	.st3{fill:#FC8686;}
	.st4{fill:#FD5151;}
	.st5{fill:#00CC91;}
	.st6{fill:#EEB517;}
	.st7{fill:#FFE800;}
	.st8{fill:#70BE5D;}
	.st9{fill:#F1BB45;}
	.st10{fill:#5C4709;}
	.st11{fill:#00A95A;}
	.st12{fill:#FFE0B3;}
	.st13{opacity:0.5;fill:#FFFFFF;}
</style>
<title>Asset 1</title>
<path class="st0" d="M200.3,270.7c0,0,1.5,5.3-2.1,7.5C194.6,280.3,195.6,272.6,200.3,270.7z"/>
<path class="st0" d="M209.4,271.7c0,0-3.3,8.9-10.6,7.9C191.4,278.6,200.7,269.2,209.4,271.7z"/>
<g>
	
		<ellipse transform="matrix(0.2733 -0.9619 0.9619 0.2733 -147.1943 396.9611)" class="st1" cx="189.1" cy="295.9" rx="21.5" ry="17.7"/>
</g>
<g>
	<path class="st2" d="M190.1,277.3c-7,0.1-13.5,6-15.8,14c-1.4,5.1-0.9,10.2,1.1,14.3c1.8,3.7,7,4.1,9.3,0.6
		C191.3,296.4,202.6,277.1,190.1,277.3z"/>
</g>
<polygon class="st3" points="169.5,29.6 167.2,27.4 172.4,18.6 225.9,35.7 229,49.1 219.5,56.3 "/>
<path class="st4" d="M147.3,77.2l19.9-49.9l63.5,22C230.6,49.3,206.9,93.2,147.3,77.2z"/>
<g>
	<path class="st5" d="M193.9,79.1c-2.7,0.9-5.5,1.6-8.4,2.1c-11.8,2.1-24.8,1.3-38.7-2.4l1-3.2c13.3,3.6,25.8,4.3,37.1,2.3
		c9-1.6,17.3-5,24.6-10.1c10.9-7.6,16.4-16.7,17.6-18.9l-3.9-14.2l4.2,1.1l4.1,11.7l-0.9,2.3c-0.2,0.5-5.9,11.5-19,20.7
		C206.1,74.2,200.2,77.1,193.9,79.1z"/>
</g>
<g>
	<path class="st2" d="M192.9,76.5c-2.8,0.9-5.6,1.6-8.5,2.1c-11.2,1.9-23.4,1.2-36.4-2.3l1.3-4.3c12.3,3.3,23.9,4.1,34.4,2.2
		c8.3-1.4,16-4.5,22.8-9.1c9.8-6.6,15.6-16.3,17-18.6l-4.3-12.9l5.3,1.4l3.9,11.9l-0.4,0.7c-0.2,0.4-6.4,12.5-19,21
		C204.1,72.1,198.7,74.7,192.9,76.5z"/>
</g>
<path class="st6" d="M242,188.6c-1.6,3.4-3.3,6.7-5.2,10c-7.4,12.2-15.5,24.2-23.1,36.3c-1.4,3,1.6,6.2,4.6,4.9
	c18.9-7.6,36.9-21.4,45.6-39.8c8.8-18.4,8.3-41.2,2.2-60.7c-1-3.1-5.3-3.4-6.7-0.5c-2.3,7-4.7,14-7,21
	C249.2,169.5,246.2,179.3,242,188.6z"/>
<path class="st2" d="M264.2,193.4c-1.7-2.7-3.5-5.3-5.7-7.7c-0.3-0.4-0.7-0.6-1-0.8c0.9-11.2,3.2-30.3,5.1-41.3
	c0.3-1.7-0.9-5.5-2-6.1c1.8-1.4,4.8-0.8,5.6,1.8c5.5,17.8,6.4,38.2-0.1,55.7C265.5,194.4,264.9,193.8,264.2,193.4z"/>
<path class="st7" d="M270.8,215.1c-0.2-0.2-0.3-0.4-0.5-0.7c-6.2-10.1-4.5-21.8-13.5-29.5c2.7,2.3,10-3.7,12.1-4.6
	c3.2-1.5,8.9,2.9,10.3,5.9c0.7,1.5,0.6,3.2,0.6,4.8c-0.3,7.1-6.2,13.7-5.4,20.8c0.1,0.9,0.2,1.9-0.1,2.8c-0.3,0.9-1.2,1.7-2.1,1.5
	C271.6,215.9,271.1,215.5,270.8,215.1z"/>
<g>
	<path class="st8" d="M258.6,46.8"/>
</g>
<path class="st8" d="M133.3,150.5c0,0,6.8-5.1,11.9-1.1C150.3,153.4,138.7,156.2,133.3,150.5z"/>
<path class="st8" d="M131.6,120.9c0,0,15.1,9.3,10.6,22.4S123.7,135.9,131.6,120.9z"/>
<path class="st8" d="M129.1,143.7c0,0,1.7-2,4.6,0.3C136.7,146.3,132.6,146.9,129.1,143.7z"/>
<g>
	<path class="st9" d="M131.9,149.5c1.3-3.3,3.1-6.2,5.5-8.7c2.4-2.4,5.2-4.3,8.6-5.6c3.4-1.3,7.1-1.9,11.3-1.8
		c4.2,0.1,7.9,0.9,11.2,2.5c3.3,1.5,6,3.6,8.2,6.1c2.2,2.6,3.9,5.6,5,9c1.1,3.4,1.6,7.1,1.5,11c-0.1,3.8-0.8,7.4-2.1,10.7
		c-1.3,3.3-3.1,6.1-5.5,8.5c-2.4,2.4-5.2,4.2-8.5,5.5c-3.3,1.3-7.1,1.9-11.3,1.8c-4.2-0.1-7.9-0.9-11.1-2.4c-3.3-1.5-6-3.5-8.2-6
		c-2.2-2.5-3.9-5.5-5-8.8c-1.1-3.3-1.6-6.9-1.5-10.8C129.9,156.4,130.6,152.8,131.9,149.5z"/>
	<path class="st9" d="M150.3,137.3c4-1.9,9.1-1.5,14,0.1c3.4,1.1,6.2,2.7,8.5,4.8c2.3,2,4,4.4,5.1,7c3.3,7.8,1.5,16.6-2.6,23.8
		c-0.9,1.6-2,3.2-3.8,4 M171.5,177c-5.3,2.3-18.9-8.5-22.5-12.2c-5.8-6.1-7.4-13.2-4.4-21c1.2-3.2,3.2-5.3,5.7-6.5"/>
	<path class="st9" d="M156.8,148.3c1.6-0.8,3.6-0.6,5.6,0c1.4,0.5,2.5,1.1,3.4,1.9c0.9,0.8,1.6,1.7,2,2.8c1.3,3.1,0.6,6.6-1,9.5
		c-0.4,0.6-0.8,1.3-1.5,1.6 M165.3,164.2c-2.1,0.9-7.5-3.4-9-4.9c-2.3-2.4-3-5.2-1.8-8.4c0.5-1.3,1.3-2.1,2.3-2.6"/>
</g>
<g>
	<path class="st9" d="M131.9,149.5c1.3-3.3,3.1-6.2,5.5-8.7c2.4-2.4,5.2-4.3,8.6-5.6c3.4-1.3,7.1-1.9,11.3-1.8
		c4.2,0.1,7.9,0.9,11.2,2.5c3.3,1.5,6,3.6,8.2,6.1c2.2,2.6,3.9,5.6,5,9c1.1,3.4,1.6,7.1,1.5,11c-0.1,3.8-0.8,7.4-2.1,10.7
		c-1.3,3.3-3.1,6.1-5.5,8.5c-2.4,2.4-5.2,4.2-8.5,5.5c-3.3,1.3-7.1,1.9-11.3,1.8c-4.2-0.1-7.9-0.9-11.1-2.4c-3.3-1.5-6-3.5-8.2-6
		c-2.2-2.5-3.9-5.5-5-8.8c-1.1-3.3-1.6-6.9-1.5-10.8C129.9,156.4,130.6,152.8,131.9,149.5z"/>
	<path class="st2" d="M150.3,137.3c4-1.9,9.1-1.5,14,0.1c3.4,1.1,6.2,2.7,8.5,4.8c2.3,2,4,4.4,5.1,7c3.3,7.8,1.5,16.6-2.6,23.8
		c-0.9,1.6-2,3.2-3.8,4 M171.5,177c-5.3,2.3-18.9-8.5-22.5-12.2c-5.8-6.1-7.4-13.2-4.4-21c1.2-3.2,3.2-5.3,5.7-6.5"/>
</g>
<polygon class="st9" points="84.8,219.5 87.9,218.9 92.8,220.1 90.8,224.8 97.4,225.1 100.9,226 101.6,237.3 94.4,242.1 76.1,232.8 
	78.5,220.8 "/>
<g>
	<path class="st9" d="M84,206.6"/>
</g>
<path class="st0" d="M65.8,206.5c0,0,8.2-1,10.6,4.9C78.7,217.2,67.6,213.9,65.8,206.5z"/>
<path class="st0" d="M84.2,193.4c0,0,6.4,11.8-1.5,18.7S73.4,200.3,84.2,193.4z"/>
<g>
	<path class="st9" d="M105,227c-0.3-0.1-0.6,0-1-0.1c-1.3-0.2-2.2-1.2-2.8-2.3l-0.5-1.1l-0.6,0.4l-0.4,0.3c-0.5,0.3-1,0.5-1.5,0.7
		c-0.8,0.2-1.3,1-1.1,1.9c0.4,2.1,0.2,4.3-0.5,5.9l-4.9,10.7c-0.3,0.6-0.7,1-1.3,1.1c-0.6,0.1-1.1-0.1-1.6-0.5
		c-4.2-3.7-10.6-6.6-13.3-11.6c-1.1-2.1-1.5-4.6-0.9-6.9c1.2-4.6,6.6-4.7,10.1-2.6c0.7,0.4,1.6,0.3,2.1-0.4c1.5-2,3.8-2.7,5.9-1.7
		c0-0.2,0-0.4,0-0.6c0-0.4,0.1-0.8,0-1.2c-2.1-0.1-4.1,0-5.4-2.2c-0.6-1-0.7-2.3-0.4-3.4c-1-1.1-1.3-1.4-2.3-2.5
		c-0.8,0.1-1.7,0.3-2.5,0.5l-19.3,4c-0.9,0.2-1.4,1-1.2,1.9l0,0.1c0.2,0.8,0.9,1.3,1.8,1.3c2.3-0.2,3.5,0.3,3.8,1.7l6,28.6
		c0.3,1.4-0.7,2.4-2.8,3.1c-0.8,0.2-1.3,1-1.1,1.9l0,0c0.2,0.9,1,1.4,1.9,1.2l19.3-4c3.2-0.7,6-1.6,8.4-2.8c2.3-1.2,4.1-2.8,5.5-4.7
		c1.3-1.9,2.1-4.3,2.4-7.2c0.2-2.1,0.1-4.5-0.3-7.3C106.1,228.2,105.7,227.2,105,227z"/>
	<path class="st2" d="M86.1,223.7c-3.4-3-10.2-3.6-11.6,1.7c-0.6,2.3-0.2,4.9,0.9,7c2.6,5,9.2,8,13.4,11.8c0.5,0.4,1.1,0.6,1.7,0.5
		c0.6-0.1,1-0.5,1.3-1.1l5-10.8c1-2.1,1-5.2,0-7.8c-0.6-0.1-1.2-0.3-1.7-0.6c-1.4-0.8-2.2-2.2-2.2-3.8
		C90.3,219.5,87.4,220.7,86.1,223.7z"/>
</g>
<path class="st10" d="M86.7,234.8c-0.2,0.1-0.4,0.2-0.6,0.2c-0.9,0-1.9-0.3-2.6-1c-0.2-0.3-0.4-0.5-0.5-0.9c-0.1-0.3-0.1-0.7,0-1.1
	c0.1-0.6,0.3-1.1,0.7-1.4 M83.8,230.6c0.2-0.2,0.6-0.3,1-0.2c1,0.1,1.6,0.7,1.9,1.6c0.2,0.6,0.6,2.5,0.1,2.9"/>
<path class="st10" d="M90.7,228.8c0.5,0.1,0.9,0.5,1.2,1c0.2,0.3,0.4,0.7,0.4,1c0.1,0.3,0,0.7,0,1c-0.3,0.9-1,1.6-1.9,2
	c-0.2,0.1-0.4,0.2-0.6,0.1 M89.8,233.9c-0.6-0.2-1.1-2.1-1.1-2.7c-0.1-1,0.3-1.7,1.1-2.2c0.3-0.2,0.7-0.3,1-0.2"/>
<path class="st11" d="M52.7,75.4c0,0,2.3,5.9-1.3,9S47.9,78.4,52.7,75.4z"/>
<path class="st11" d="M40.5,72.8c0,0,10.1,2.8,10.6,10.5S39.7,82,40.5,72.8z"/>
<g>
	<path class="st12" d="M58.9,101.7c-1.2-2.2-2.1-4.6-2.5-7.3c-0.9-5.1-0.3-11.9,5.3-14c1.4-0.5,2.9-0.7,4.3-0.9
		c-0.1-0.1-0.2-0.2-0.4-0.3c-0.8-0.5-1.6-0.8-2.4-1c-2.3-0.5-10.3,3.4-12.4,4.4c-4.2,2.1-8.8,1.1-13,2.7c-1.2,0.5-2.2,1.1-3.1,1.9
		c-0.9,0.9,0,2.4,1.2,1.9c1.8-0.7,3.4-1.1,4.2-0.9c0.7,0.2,1.4,0.5,2,0.9c4,2.5,6.4,9.1,7.1,13c0.5,2.7,0.5,5.2,0,7.7
		c-0.5,3-2.1,7.9-5.1,9.7c2.3,1.1,4.7,1.7,6.9,1.2c4.6-1,6.7-5,12-4.9c1,0,2,0.1,3,0c2.4-0.4,4.3-2.5,5.6-5
		C66.5,110.8,61.1,105.7,58.9,101.7z"/>
</g>
<g>
	<path class="st4" d="M35.9,89.2c1.6-0.6,3.1-1,4-0.9c0.3-0.1,0.6-0.1,0.9-0.2c3.5-0.4,6.7-0.2,9.8-2c2.2-1.3,4.6-2.6,7.1-3.6
		c0.6-0.4,1.2-0.6,1.8-0.9c0.6-0.5,1.3-0.9,2.2-1.2c1.4-0.5,2.9-0.7,4.3-0.9c-0.1-0.1-0.2-0.2-0.4-0.3c-0.8-0.5-1.6-0.8-2.4-1
		c-2.3-0.5-10.3,3.4-12.4,4.4c-4.2,2.1-8.8,1.1-13,2.7c-1.2,0.5-2.2,1.1-3.1,1.9C33.8,88.1,34.8,89.6,35.9,89.2z"/>
	<path class="st4" d="M71.2,110.8c-4.5,2.7-9.4,2.7-14.2,4.3c-4.2,1.5-7.1,4-11.8,4.4c-0.3,0-0.7,0-1,0c0,0,0,0,0,0
		c2.3,1.1,4.7,1.7,6.9,1.2c4.6-1,6.7-5,12-4.9c1,0,2,0.1,3,0c2.4-0.4,4.3-2.5,5.6-5c-0.1,0-0.2,0-0.3,0
		C71.3,110.7,71.2,110.8,71.2,110.8z"/>
</g>
<path class="st13" d="M159.1,66.2c-1.5,0.4-1.4,3-0.2,2.5C160.1,68.2,159.1,66.2,159.1,66.2z"/>
<path class="st13" d="M164.9,59.2c-1.4,0.6-0.8,3.2,0.3,2.5C166.2,60.9,164.9,59.2,164.9,59.2z"/>
<path class="st13" d="M174.7,59.2c-1.3,0.9-0.2,3.3,0.7,2.4C176.3,60.7,174.7,59.2,174.7,59.2z"/>
<path class="st13" d="M182.7,58.2c-1.3,0.9-0.2,3.3,0.7,2.4C184.3,59.7,182.7,58.2,182.7,58.2z"/>
<path class="st13" d="M189.7,57.2c-1.3,0.9-0.2,3.3,0.7,2.4C191.3,58.7,189.7,57.2,189.7,57.2z"/>
<path class="st13" d="M202.1,51.4c-0.7,1.4,1.3,3,1.7,1.8C204.2,52,202.1,51.4,202.1,51.4z"/>
<path class="st13" d="M204.1,45.4c-0.7,1.4,1.3,3,1.7,1.8C206.2,46,204.1,45.4,204.1,45.4z"/>
<path class="st13" d="M193.1,51.5c-0.7,1.4,1.3,3,1.7,1.8C195.2,52.1,193.1,51.5,193.1,51.5z"/>
<path class="st13" d="M169.3,67.4c-1.4,0.7-0.7,3.2,0.3,2.5C170.7,69.2,169.3,67.4,169.3,67.4z"/>
<path class="st13" d="M179.7,66.2c-1.3,0.9-0.3,3.3,0.7,2.4C181.3,67.7,179.7,66.2,179.7,66.2z"/>
<path class="st13" d="M188.5,64.3c-1.2,0.9-0.1,3.3,0.8,2.3C190.3,65.7,188.5,64.3,188.5,64.3z"/>
<path class="st13" d="M195.8,62c-1.1,1.1,0.3,3.3,1.1,2.2C197.6,63.2,195.8,62,195.8,62z"/>
<path class="st13" d="M201,57.9c-0.7,1.4,1.4,3,1.8,1.8C203.2,58.4,201,57.9,201,57.9z"/>
<path class="st13" d="M208.7,55.2c-0.8,1.3,1.2,3,1.7,1.8C210.9,55.8,208.7,55.2,208.7,55.2z"/>
<path class="st13" d="M213.4,49c-0.6,1.4,1.6,2.9,1.9,1.6C215.6,49.3,213.4,49,213.4,49z"/>
<path class="st13" d="M165.8,45.9c-1.1,0.5-0.6,2.5,0.2,1.9C166.8,47.3,165.8,45.9,165.8,45.9z"/>
<path class="st13" d="M171.3,40c-1,0.6-0.4,2.5,0.4,1.9C172.5,41.2,171.3,40,171.3,40z"/>
<path class="st13" d="M178.1,44.1c-0.7,0.9,0.6,2.5,1.1,1.6C179.7,44.8,178.1,44.1,178.1,44.1z"/>
<path class="st13" d="M187.6,41.3c-0.6,1,0.8,2.4,1.2,1.5C189.3,41.9,187.6,41.3,187.6,41.3z"/>
<path class="st13" d="M178.4,37.4c-0.6,1,0.8,2.4,1.2,1.5C180,38,178.4,37.4,178.4,37.4z"/>
<path class="st13" d="M161.3,52.7c-1.1,0.4-0.8,2.4,0.1,1.9C162.2,54.1,161.3,52.7,161.3,52.7z"/>
<path class="st13" d="M169.4,52.3c-1,0.6-0.4,2.5,0.4,1.9C170.6,53.6,169.4,52.3,169.4,52.3z"/>
<path class="st13" d="M174.9,49.5c-1,0.7-0.2,2.5,0.5,1.9C176.2,50.7,174.9,49.5,174.9,49.5z"/>
<path class="st13" d="M182.1,50.1c-0.9,0.8,0.1,2.6,0.7,1.8C183.5,51.1,182.1,50.1,182.1,50.1z"/>
<path class="st13" d="M186.4,47.2c-0.6,1,0.9,2.4,1.3,1.5C188,47.7,186.4,47.2,186.4,47.2z"/>
<path class="st13" d="M192.5,45.5c-0.7,1,0.8,2.4,1.2,1.5C194.2,46.1,192.5,45.5,192.5,45.5z"/>
<path class="st13" d="M196.5,41c-0.5,1.1,1,2.3,1.4,1.4C198.2,41.4,196.5,41,196.5,41z"/>
<path class="st2" d="M55,97.7c0.3,0.1,0.6,0.3,0.8,0.6c0.1,0.2,0.2,0.4,0.3,0.6c0,0.2,0,0.4,0,0.6c-0.2,0.6-0.7,1-1.2,1.3
	c-0.1,0.1-0.3,0.1-0.4,0.1 M54.4,100.9c-0.4-0.1-0.7-1.3-0.7-1.7c-0.1-0.6,0.2-1.1,0.7-1.4c0.2-0.1,0.4-0.2,0.6-0.1"/>
<path class="st2" d="M52.3,101.4c-0.1,0.1-0.2,0.1-0.4,0.1c-0.6,0-1.2-0.2-1.6-0.7c-0.1-0.2-0.2-0.3-0.3-0.6c-0.1-0.2-0.1-0.4,0-0.7
	c0.1-0.4,0.2-0.7,0.5-0.9 M50.5,98.7c0.2-0.1,0.4-0.2,0.6-0.1c0.6,0.1,1,0.4,1.2,1c0.1,0.4,0.3,1.6,0,1.8"/>
</svg>
