<?xml version="1.0" encoding="utf-8"?>
<!-- Generator: Adobe Illustrator 23.1.1, SVG Export Plug-In . SVG Version: 6.00 Build 0)  -->
<svg version="1.1" id="Layer_1" xmlns="http://www.w3.org/2000/svg" xmlns:xlink="http://www.w3.org/1999/xlink" x="0px" y="0px"
	 viewBox="0 0 1201.4 272.5" style="enable-background:new 0 0 1201.4 272.5;" xml:space="preserve">
<style type="text/css">
	.st0{fill:#F1BB45;}
	.st1{fill:#71BF5D;}
	.st2{fill:#FFFFFF;}
	.st3{fill:#775445;}
	.st4{fill:#182E3D;}
</style>
<title>Asset 8</title>
<g>
	<g id="Layer_1-2">
		<polygon class="st0" points="598.6,98.9 611,98.9 628.4,107.6 617.1,123.7 641.9,129.8 654.2,136 648,179.3 617.1,191.7 
			555.3,142.2 573.9,98.9 		"/>
		<path class="st1" d="M537,34.9c0,0,31.7,2.8,36.2,26.7S538,64.2,537,34.9z"/>
		<path class="st1" d="M617,0c0,0,15,49.7-20.5,69.5S570.8,17.6,617,0z"/>
		<path class="st0" d="M669.2,143.3c-1.2-0.5-2.4-0.8-3.6-1.1c-4.9-1.6-7.5-6.4-8.6-10.9l-1-4.5l-2.6,1.1l-1.6,0.7
			c-1.9,0.8-4,1.3-6.1,1.4c-3.3,0.1-5.9,2.9-5.8,6.2c0,8.3-2.5,16.4-6.6,22l-27.1,36.5c-1.3,2-3.5,3.2-5.8,3.2
			c-2.3-0.1-4.5-1.3-5.8-3.2c-12.8-17.1-35-33.4-41-54.4c-2.6-8.9-1.9-18.5,2.1-26.9c8.1-16.3,28.5-12.5,40.3-1.9
			c2.3,2.1,5.8,2.2,8.2,0.2c7.2-6.2,16.4-7.1,23.7-1.9c0.1-0.7,0.3-1.4,0.5-2.1c0.5-1.4,0.9-2.9,1.1-4.3
			c-7.9-2.1-15.5-3.1-18.6-12.4c-1.4-4.4-1-9.1,1.1-13.2l-6.6-11.3c-3.2-0.1-6.5-0.2-10-0.2l-76.1-0.2c-3.4,0-6.2,2.7-6.2,6.1v0.4
			c0,3.2,2.5,5.8,5.7,6.1c8.8,0.9,13.1,4.1,13.1,9.5v112.9c0,5.4-4.4,8.6-13.1,9.5c-3.2,0.3-5.6,2.9-5.6,6.1l0,0
			c0,3.4,2.7,6.2,6.1,6.2c0,0,0,0,0,0h76.1c12.8,0,24.1-1.3,33.8-4c9.1-2.4,17.5-7,24.4-13.5c6.5-6.3,11.4-14.7,14.7-25.3
			c2.6-9.1,4.1-18.4,4.5-27.8C672.4,148.4,671.5,144.6,669.2,143.3z"/>
		<path class="st2" d="M600.2,116c-10.3-13.8-35.3-21.2-44.5-2.7c-4,8.4-4.7,18-2.1,26.9c6,20.9,28.2,37.3,41,54.4
			c1.3,2,3.5,3.2,5.8,3.2c2.3-0.1,4.5-1.3,5.8-3.2l27.1-36.6c5.3-7.2,7.9-18.5,5.9-29.1c-2.2-0.7-4.2-1.9-5.9-3.4
			c-4.4-4-6.5-10-5.4-15.9C619.2,103.5,607.7,105.9,600.2,116z"/>
		<path class="st3" d="M613.4,140.5c1.9,0.8,3.3,2.7,4.2,5c0.6,1.4,0.9,2.9,0.8,4.5c0,1.4-0.4,2.8-1,4c-1.8,3.6-5.6,5.7-9.4,6.5
			c-0.8,0.2-1.7,0.2-2.6-0.1 M605.4,160.4c-2.4-1.2-2.6-9.3-2.3-11.7c0.3-3.7,2.8-6.9,6.3-8c1.3-0.5,2.8-0.5,4.1,0"/>
		<path class="st3" d="M591.1,160.3c-0.8,0.3-1.7,0.3-2.6,0.1c-3.8-0.8-7.6-2.9-9.4-6.5c-0.6-1.2-1-2.6-1-4c0-1.5,0.2-3.1,0.8-4.5
			c0.7-2.1,2.2-3.9,4.2-5 M583.1,140.5c1.3-0.5,2.8-0.5,4.1,0c3.5,1.1,6,4.3,6.3,8c0.3,2.4,0.1,10.5-2.3,11.7"/>
		<path class="st4" d="M63.5,224.2c-39,0-63.5-20.9-63.5-79.3c0-56.8,27.6-81.3,65.5-81.3c38.8,0,63.9,21.4,63.9,79.5
			C129.4,199.9,101.6,224.2,63.5,224.2z M65.5,195.9c17.8,0,28.7-12.7,28.7-51.2c0-39-11.8-52.8-30.7-52.8
			c-16.7,0-28.5,12-28.5,50.8C35,182.1,46.6,195.9,65.5,195.9z"/>
		<path class="st4" d="M167.6,53.1h7.5c7.1,0,12.8,5.7,12.8,12.8c0,0,0,0,0,0v35.7h0.9c4.9-3.3,14-6.9,24.5-6.9
			c28.5,0,49.7,15.6,49.7,61.9c0,38.3-22.5,67.5-64.4,67.5c-15.3,0-26.1-1.7-35.1-4.6c-5.3-1.7-8.8-6.7-8.8-12.2V65.9
			C154.8,58.8,160.5,53.1,167.6,53.1C167.6,53.1,167.6,53.1,167.6,53.1z M229.6,159.3c0-28.1-9.8-37-24.3-37c-2.7,0-5.5,0.4-8.1,1.2
			c-5.3,1.7-8.9,6.7-8.9,12.2v48.8c-0.1,7,5.6,12.8,12.6,12.9h0.1C219,197.4,229.7,186.1,229.6,159.3L229.6,159.3z"/>
		<path class="st4" d="M281.8,132.8c0-20.5,17.6-39,46.8-39c11.9,0,21.5,2.2,29.2,5.7c7.4,3.4,10.6,12.2,7.2,19.5
			c-0.8,1.6-1.8,3.1-3.1,4.4l0,0c-4.8,4.7-12.2,5.5-17.9,2c-4.9-3-10.5-4.6-16.2-4.7c-7.6,0-12.5,4-12.5,9.8
			c0,18.9,59.3,12.2,59.3,54.3c0,16.7-13.1,39.2-49.7,39.2c-15.8,0-28-3.8-36.9-8.4c-8.3-4.3-10.1-15.4-4-22.5l0.2-0.2
			c4.9-5.6,13.2-6.7,19.4-2.6c6.9,4.5,14.9,7,23.1,7.2c10.5,0.1,14.5-4.8,14.5-10.6C341,168.7,281.8,174.7,281.8,132.8z"/>
		<path class="st4" d="M399.8,181.6v-51.9c0-4.4-3.6-8-8-8l0,0c-4.4,0-8-3.6-8-8v-7.6c0-3.3,2-6.2,5-7.4l8.1-3.3
			c2-0.8,3.6-2.5,4.4-4.5l8.3-21.3c1.2-3.1,4.2-5.1,7.5-5.1h7.8c4.4,0,8,3.6,8,8v15.6c0,4.4,3.6,8,8,8h15.4c4.4,0,8,3.6,8,8v9.6
			c0,4.4-3.6,8-8,8H441c-4.4,0-8,3.6-8,8v52.8c0,8.7,4.9,13.1,13.1,13.1c3.4,0,6.8-0.6,10-1.8c4.3-1.4,8.8,0.9,10.2,5.2l3.4,9.7
			c1.5,4.1-0.6,8.7-4.7,10.2c-5.7,2.2-14.6,4.1-28,4.1C415.4,223.1,399.8,212.1,399.8,181.6z"/>
		<path class="st4" d="M713,102.8h5.2c3.4,0,6.1,2.7,6.1,6.1c0,0,0,0,0,0v109c0,3.4-2.7,6.1-6.1,6.1l0,0H713c-3.4,0-6.1-2.7-6.1-6.1
			v0v-109C706.9,105.5,709.6,102.8,713,102.8L713,102.8z"/>
		<path class="st4" d="M852.6,224.8c0,31.9-19.6,47.7-49.9,47.7c-17.5,0-28.6-4.7-35.1-9c-2.7-1.9-3.4-5.6-1.5-8.3
			c0-0.1,0.1-0.1,0.1-0.2l2.8-4c1.9-2.7,5.6-3.3,8.3-1.5c6,4.3,14.7,7.6,27.4,7.6c22.1,0,31-10.7,31-32.3v-11.1h-0.9
			c-3.8,3.4-14,9.6-29.6,9.6c-25,0-46.1-15.6-46.1-56.8c0-38.8,18.9-64.8,59-64.8c12.8,0,23.2,1.9,30.5,4.5c2.4,0.9,4,3.2,4,5.8
			L852.6,224.8z M815.6,116.8c-23.4,0-39,15.4-39,47.5c0,34.8,16,43.9,33.2,43.9c8.8,0,18.2-3.6,24.2-10.1c1-1.1,1.5-2.5,1.5-4
			v-69.5c0-2.7-1.8-5.2-4.5-5.9C825.9,117.4,820.8,116.8,815.6,116.8L815.6,116.8z"/>
		<path class="st4" d="M901.4,102.8h5.2c3.4,0,6.1,2.7,6.1,6.1c0,0,0,0,0,0v109c0,3.4-2.7,6.1-6.1,6.1l0,0h-5.2
			c-3.4,0-6.1-2.7-6.1-6.1v0v-109C895.3,105.5,898.1,102.8,901.4,102.8L901.4,102.8z"/>
		<path class="st4" d="M713,84.9h5.2c3.4,0,6.1-2.7,6.1-6.1c0,0,0,0,0,0v-5.3c0-3.4-2.7-6.1-6.1-6.1l0,0H713c-3.4,0-6.1,2.7-6.1,6.1
			c0,0,0,0,0,0v5.3C706.9,82.2,709.6,84.9,713,84.9L713,84.9z"/>
		<path class="st4" d="M901.4,84.9h5.2c3.4,0,6.1-2.7,6.1-6.1c0,0,0,0,0,0v-5.3c0-3.4-2.7-6.1-6.1-6.1l0,0h-5.2
			c-3.4,0-6.1,2.7-6.1,6.1c0,0,0,0,0,0v5.3C895.3,82.2,898.1,84.9,901.4,84.9L901.4,84.9z"/>
		<path class="st4" d="M957.7,191.6v-68.8c0-3.4-2.7-6.1-6.1-6.1l0,0h-5.9c-3.4,0-6.1-2.7-6.1-6.1c0,0,0,0,0,0l0,0
			c0-2.9,2.1-5.5,5-6l8.9-1.6c2.5-0.5,4.5-2.5,4.9-5l3.8-22.1c0.5-2.9,3-5.1,6-5.1h0.6c3.4,0,6.1,2.7,6.1,6.1v19.7
			c0,3.4,2.7,6.1,6.1,6.1l0,0h21.2c3.4,0,6.1,2.7,6.1,6.1c0,0,0,0,0,0v1.9c0,3.4-2.7,6.1-6.1,6.1l0,0H981c-3.4,0-6.1,2.7-6.1,6.1
			c0,0,0,0,0,0v67.9c0,13.6,6.9,19.2,17.6,19.2c4.5,0.1,8.9-0.5,13.2-1.8c3.1-1,6.4,0.7,7.5,3.8l0.8,2.3c1.1,3.2-0.5,6.7-3.7,7.8
			c0,0-0.1,0-0.1,0c-4.8,1.7-11.7,3-21.5,3C968.6,225.1,957.7,214.6,957.7,191.6z"/>
		<path class="st4" d="M1117.4,137.7v54.8c0,10.9,3.3,18.3,11.8,18.3h3.1v12.7c-1.9,0.9-4.1,1.4-6.2,1.3c-12,0-19.2-6.5-22-14.7
			h-0.9c-5.8,6.7-15.6,16.3-36.1,16.3c-22.5,0-35-15.8-35-32.3c0-25.4,23.8-38.6,63.2-39.2c3.3,0,6.1-2.7,6.1-6.1v-7.1
			c0-19.8-9.6-25.6-25.6-25.6c-12.4,0-19.8,5.2-24.3,10.2c-2.1,2.4-5.7,2.7-8.2,0.7l-3-2.3c-2.6-2.1-3.1-5.9-1-8.6
			c0.1-0.2,0.2-0.3,0.4-0.4c6.1-6.5,17.3-14.7,36.5-14.7C1102.1,101,1117.4,112.3,1117.4,137.7z M1101.4,174.5
			c0-3.4-2.8-6.1-6.2-6.1c0,0,0,0,0,0c-26.2,0.1-45.9,7.4-45.9,24.4c0,10.7,7.8,19.4,21.8,19.4c12.9,0,23.3-7.2,29.1-14.9
			c0.8-1.1,1.2-2.3,1.2-3.6V174.5z"/>
		<path class="st4" d="M1172.6,54.9c3.4,0,6.1,2.7,6.1,6.1v134.2c0,10.7,3.6,15.4,12.7,15.4c1,0,2-0.1,2.9-0.2c3.3-0.5,6.5,1.7,7,5
			c0.1,0.3,0.1,0.6,0.1,1v2.1c0,2.8-1.9,5.3-4.6,5.9c-3.5,0.8-7,1.2-10.6,1.1c-16.7,0-24.7-9.8-24.7-25.6V61c0-3.4,2.7-6.1,6.1-6.1
			L1172.6,54.9z"/>
	</g>
</g>
</svg>
