<?xml version="1.0" encoding="utf-8"?>
<!-- Generator: Adobe Illustrator 23.0.6, SVG Export Plug-In . SVG Version: 6.00 Build 0)  -->
<svg version="1.1" id="Layer_1" xmlns="http://www.w3.org/2000/svg" xmlns:xlink="http://www.w3.org/1999/xlink" x="0px" y="0px"
	 viewBox="0 0 210.2 210.2" style="enable-background:new 0 0 210.2 210.2;" xml:space="preserve">
<style type="text/css">
	.st0{fill:#FB5356;}
	.st1{fill:#73BE62;}
	.st2{fill:#F4C965;}
	.st3{fill:#FFFFFF;}
	.st4{fill:#5E5E5E;}
</style>
<title>Asset 17</title>
<g>
	<g id="Layer_1-2">
		<path class="st0" d="M37,0h136.2c1.8,0,3.3,1.5,3.3,3.3v68.1c0,39.5-32,71.4-71.4,71.4h0c-39.5,0-71.4-32-71.4-71.4V3.4
			C33.6,1.5,35.1,0,37,0z"/>
		<path class="st1" d="M76.3,73.2c0,0,8.8-7,15.7-1.9S83.6,80.5,76.3,73.2z"/>
		<path class="st1" d="M72.9,34.1c0,0,20.3,11.7,14.8,29.2S63.1,54.3,72.9,34.1z"/>
		<path class="st1" d="M57.6,66.4c0,0,10.9-11.5,21.5-5.2S69.3,75.9,57.6,66.4z"/>
		<path class="st2" d="M74.5,71.9c1.5-4.3,3.9-8.3,6.9-11.6c3.1-3.4,6.9-6,11.1-7.8c4.7-1.9,9.7-2.9,14.8-2.8
			c5.1-0.1,10.2,0.9,14.9,2.8c4.2,1.8,8,4.4,11.1,7.8c3.1,3.4,5.4,7.3,6.9,11.6c1.6,4.6,2.5,9.5,2.4,14.5c0,4.8-0.8,9.6-2.4,14.2
			c-1.5,4.2-3.9,8.1-6.9,11.5c-3.1,3.3-6.9,5.9-11.1,7.7c-4.7,1.9-9.8,2.9-14.9,2.8c-5.1,0.1-10.1-0.9-14.8-2.8
			c-4.2-1.7-8-4.3-11.1-7.7c-3.1-3.3-5.4-7.2-6.9-11.4c-1.6-4.5-2.5-9.3-2.4-14.2C72,81.5,72.8,76.6,74.5,71.9z"/>
		<path class="st3" d="M98.2,55.1c5.2-2.7,12-2.3,18.5-0.4c4.2,1.2,8.1,3.2,11.4,6c3,2.5,5.4,5.6,7,9.1c4.7,10.1,2.6,21.9-2.5,31.5
			c-1.1,2.2-2.6,4.3-4.8,5.4 M127.8,106.8c-7,3.2-25.3-10.5-30.2-15.3c-7.9-7.8-10.3-17.1-6.6-27.6c1.2-3.8,3.8-6.9,7.2-8.8"/>
		<path class="st4" d="M107.3,69.5c2.1-1.1,4.8-0.9,7.4-0.2c1.7,0.5,3.2,1.3,4.6,2.4c1.2,1,2.1,2.2,2.8,3.6c1.9,4,1,8.7-1,12.6
			c-0.4,0.9-1.1,1.7-1.9,2.1 M119.1,90c-2.8,1.3-10.1-4.2-12-6.1c-3.1-2.7-4.2-7.1-2.7-11c0.5-1.5,1.5-2.8,2.9-3.5"/>
	</g>
</g>
<g>
	<path class="st3" d="M39.3,169.8c-4.2-2.3-5.6-5.9-2.3-12.2c3.3-6.1,7.7-7.2,11.8-5c4.2,2.2,5.7,6,2.3,12.3
		C47.9,171,43.5,172,39.3,169.8z M41.2,166.9c1.9,1,3.8,0.3,6.1-3.9c2.3-4.2,1.8-6.4-0.3-7.5c-1.8-1-3.8-0.4-6,3.8
		C38.7,163.6,39.2,165.8,41.2,166.9z"/>
	<path class="st3" d="M58.1,155.9l3.8,1.4l-2.1,5.6l0.1,0c0.7-0.2,1.9-0.2,3.1,0.3c3.3,1.2,5,3.9,3,9.2c-1.7,4.4-5.5,6.8-10.3,4.9
		c-2.4-0.9-3.7-1.8-4.7-2.8L58.1,155.9z M62.1,171.3c1.2-3.2,0.5-4.7-1.2-5.3c-0.9-0.3-1.7-0.2-2.2,0l-2.9,7.6
		c0.4,0.3,0.8,0.5,1.4,0.8C59.2,175.2,61,174.4,62.1,171.3z"/>
	<path class="st3" d="M69.3,170.3c0.6-2.4,3.3-4.1,6.7-3.2c2.7,0.7,4.2,2.1,4.9,3.5l-3.2,1.9c-0.4-0.7-1.2-1.8-2.6-2.1
		c-0.9-0.2-1.6,0.1-1.8,0.8c-0.6,2.2,6.7,3.2,5.4,8.2c-0.5,2-2.7,4.3-7.1,3.2c-3.3-0.8-4.9-2.7-5.5-3.8l3.1-2.1
		c0.5,0.9,1.6,2.4,3.4,2.8c1.2,0.3,1.9-0.1,2-0.8C75.3,176.4,68.1,175.3,69.3,170.3z"/>
	<path class="st3" d="M82.5,179.5l1.1-7.2l-1.9-0.3l0.4-2.5l2.1-0.5l2-3.4l2.6,0.4l-0.6,3.8l3.8,0.6l-0.5,3.1l-3.8-0.6l-1.2,7.4
		c-0.2,1,0.3,1.7,1.3,1.8c0.6,0.1,1.5,0,2.2-0.3l0.6,3.2c-0.6,0.3-1.8,0.7-4.4,0.3C83.6,184.8,81.9,183.2,82.5,179.5z"/>
	<path class="st3" d="M102.5,167.6l4.8,0c5.6-0.1,8.2,2.9,8.2,9.3c0.1,6.6-2.6,9.7-8.1,9.7l-4.7,0L102.5,167.6z M104.3,185.1l3.1,0
		c4.3,0,6.4-2,6.4-8c-0.1-6-2.4-8.1-6.7-8l-3,0L104.3,185.1z"/>
	<path class="st3" d="M120.1,165.6c0.8-0.1,1.4,0.4,1.5,1.2c0.1,0.7-0.4,1.4-1.2,1.4c-0.7,0.1-1.4-0.4-1.4-1.2
		C118.9,166.3,119.4,165.6,120.1,165.6z M120.1,171.3l1.6-0.2l1.5,14.6l-1.6,0.2L120.1,171.3z"/>
	<path class="st3" d="M139.6,183.4c0.7,3.7-1.1,6-4.7,6.7c-2.5,0.5-4.1-0.2-4.7-0.5l0.7-1.5c0.8,0.5,2,0.9,4.1,0.5
		c2.8-0.5,3.6-2.2,3.1-4.9l-0.3-1.5l-0.1,0c-0.4,0.5-1.5,1.6-3.5,1.9c-2.9,0.6-5.8-0.9-6.7-5.7c-0.9-4.8,0.7-8.2,5.5-9.2
		c1.6-0.3,3.1-0.3,3.9,0L139.6,183.4z M132.9,170.8c-3,0.6-4.7,2.9-3.9,7.1c0.9,4.5,3.3,5.2,5.4,4.8c1.2-0.2,2.5-1.1,3-2.3l-1.9-9.7
		C134.9,170.6,133.9,170.6,132.9,170.8z"/>
	<path class="st3" d="M140.9,161.6c0.7-0.2,1.4,0.2,1.6,0.9c0.2,0.7-0.2,1.4-0.9,1.6c-0.7,0.2-1.4-0.2-1.6-0.9
		C139.8,162.5,140.2,161.8,140.9,161.6z M141.8,167.2l1.5-0.4l4,14.1l-1.5,0.4L141.8,167.2z"/>
	<path class="st3" d="M152.4,175.5l-3.3-9.1l-2.1,0.8l-0.4-1l2-1.1l-0.9-3.8l1.1-0.4l1.3,3.7l3.9-1.4l0.5,1.3l-3.9,1.4l3.2,8.9
		c0.6,1.7,1.7,2.1,3,1.6c1.3-0.5,1.8-1,2-1.2l0.9,1.1c-0.4,0.5-1.2,1.1-2.7,1.6C154.9,178.7,153.3,177.9,152.4,175.5z"/>
	<path class="st3" d="M167.7,161.6l2.9,6.2c0.6,1.3,1.5,2.1,2.5,1.6l0.3-0.2l0.5,1.1c-0.1,0.1-0.2,0.2-0.4,0.2
		c-1.3,0.6-2.5,0.3-3.2-0.5l-0.1,0c-0.3,1.1-0.9,2.7-3.2,3.8c-2.4,1.2-4.6,0.1-5.5-1.7c-1.4-2.9,0.9-5.7,5.7-8l-0.7-1.6
		c-1.1-2.4-2.6-2.5-4.5-1.6c-1.9,0.9-2.3,2.4-2.4,3.2l-1.5-0.4c0.2-0.8,0.7-2.9,3.4-4.2C164.2,158.5,166.4,159,167.7,161.6z
		 M167.9,165.5c-3.5,1.5-6,3.7-4.9,5.9c0.6,1.3,2.1,1.9,3.8,1.1c1.7-0.8,2.5-2.5,2.7-3.8L167.9,165.5z"/>
	<path class="st3" d="M169,149.3l8.8,15.1c0.7,1.2,1.3,1.5,2.4,0.9c0.5-0.3,0.9-0.7,1-1l0.7,1.2c-0.3,0.5-1,1-1.4,1.2
		c-1.7,1-3,0.4-3.9-1.1l-9-15.5L169,149.3z"/>
</g>
</svg>
